<?xml version="1.0" encoding="UTF-8" standalone="no"?>
<!-- Created with Inkscape (http://www.inkscape.org/) -->

<svg
   xmlns:dc="http://purl.org/dc/elements/1.1/"
   xmlns:cc="http://creativecommons.org/ns#"
   xmlns:rdf="http://www.w3.org/1999/02/22-rdf-syntax-ns#"
   xmlns:svg="http://www.w3.org/2000/svg"
   xmlns="http://www.w3.org/2000/svg"
   xmlns:sodipodi="http://sodipodi.sourceforge.net/DTD/sodipodi-0.dtd"
   xmlns:inkscape="http://www.inkscape.org/namespaces/inkscape"
   width="1330.3031mm"
   height="142.52222mm"
   viewBox="0 0 1330.3031 142.52222"
   version="1.1"
   id="svg1679"
   inkscape:version="0.92.4 (5da689c313, 2019-01-14)"
   sodipodi:docname="banner.svg">
  <defs
     id="defs1673" />
  <sodipodi:namedview
     id="base"
     pagecolor="#ffffff"
     bordercolor="#666666"
     borderopacity="1.0"
     inkscape:pageopacity="0.0"
     inkscape:pageshadow="2"
     inkscape:zoom="0.24748737"
     inkscape:cx="2596.9114"
     inkscape:cy="269.33332"
     inkscape:document-units="mm"
     inkscape:current-layer="layer1"
     showgrid="false"
     fit-margin-top="0"
     fit-margin-left="0"
     fit-margin-right="0"
     fit-margin-bottom="0"
     inkscape:window-width="1920"
     inkscape:window-height="1017"
     inkscape:window-x="1912"
     inkscape:window-y="1072"
     inkscape:window-maximized="1" />
  <metadata
     id="metadata1676">
    <rdf:RDF>
      <cc:Work
         rdf:about="">
        <dc:format>image/svg+xml</dc:format>
        <dc:type
           rdf:resource="http://purl.org/dc/dcmitype/StillImage" />
        <dc:title></dc:title>
      </cc:Work>
    </rdf:RDF>
  </metadata>
  <g
     inkscape:label="Layer 1"
     inkscape:groupmode="layer"
     id="layer1"
     transform="translate(559.31818,-77.572225)">
    <g
       transform="matrix(0.26562092,0,0,0.26562092,-1869.0057,-70.430086)"
       id="g1108"
       inkscape:export-filename="C:\Users\eine\Desktop\EDAA_modules_logos.png"
       inkscape:export-xdpi="17.843866"
       inkscape:export-ydpi="17.843866">
      <rect
         style="fill:#0277bd;fill-opacity:1;stroke-width:1.66958511"
         x="5097.6221"
         y="995.20099"
         width="166.95851"
         height="83.479256"
         id="rect990" />
      <rect
         style="fill:#29b6f6;fill-opacity:1;stroke-width:1.66958511"
         x="5264.5811"
         y="995.20099"
         width="166.95851"
         height="83.479256"
         id="rect992" />
      <rect
         style="fill:#0277bd;fill-opacity:1;stroke-width:1.66958511"
         x="5097.6221"
         y="911.72174"
         width="166.95851"
         height="83.479256"
         id="rect994" />
      <rect
         style="fill:#29b6f6;fill-opacity:1;stroke-width:1.66958511"
         x="4930.6641"
         y="911.72174"
         width="166.95851"
         height="83.479256"
         id="rect996" />
      <rect
         style="fill:#0277bd;fill-opacity:1;stroke-width:1.66958511"
         x="5097.6221"
         y="828.24255"
         width="166.95851"
         height="83.479256"
         id="rect998" />
      <rect
         style="fill:#29b6f6;fill-opacity:1;stroke-width:1.66958511"
         x="5264.5811"
         y="828.24255"
         width="166.95851"
         height="83.479256"
         id="rect1000" />
      <rect
         style="fill:#0277bd;stroke-width:1.66958511"
         x="5097.6221"
         y="744.76318"
         width="166.95851"
         height="83.479256"
         id="rect1002" />
      <rect
         style="fill:#29b6f6;stroke-width:1.66958511"
         x="4930.6641"
         y="744.76318"
         width="166.95851"
         height="83.479256"
         id="rect1004" />
      <rect
         style="fill:#0277bd;fill-opacity:1;stroke-width:1.66958511"
         x="5097.6221"
         y="661.28394"
         width="166.95851"
         height="83.479256"
         id="rect1006" />
      <rect
         style="fill:#29b6f6;fill-opacity:1;stroke-width:1.66958511"
         x="5264.5811"
         y="661.28394"
         width="166.95851"
         height="83.479256"
         id="rect1008" />
      <rect
         style="fill:#0277bd;fill-opacity:1;stroke-width:1.66958511"
         x="5097.6221"
         y="577.80475"
         width="166.95851"
         height="83.479256"
         id="rect1010" />
      <rect
         style="fill:#29b6f6;fill-opacity:1;stroke-width:1.66958511"
         x="4930.6641"
         y="577.80475"
         width="166.95851"
         height="83.479256"
         id="rect1012" />
    </g>
    <g
       transform="matrix(0.26562092,0,0,0.26562092,-1869.0057,-70.430086)"
       aria-label="pySystemVerilogModel"
       style="font-style:normal;font-weight:normal;font-size:39.84375px;line-height:1.25;font-family:sans-serif;letter-spacing:0px;word-spacing:0px;fill:#ffffff;fill-opacity:1;stroke:none;stroke-width:0.99609375"
       id="text1016"
       inkscape:export-filename="C:\Users\eine\Desktop\EDAA_modules_logos.png"
       inkscape:export-xdpi="17.843866"
       inkscape:export-ydpi="17.843866">
      <path
         d="m 5658.5186,678.0531 h 23.2421 q 60.4297,0 60.4297,59.10156 V 943.6781 q 0,58.4375 -60.4297,58.4375 h -23.2421 q -32.5391,0 -41.1719,-25.89844 v 117.53904 h -59.7656 V 678.0531 h 59.7656 v 25.89844 q 8.6328,-25.89844 41.1719,-25.89844 z m 23.9062,256.32813 V 745.78748 q 0,-11.95313 -3.9844,-15.27344 -3.9843,-3.98438 -15.9375,-3.98438 h -23.2422 q -11.9531,0 -17.2656,5.3125 -4.6484,5.3125 -4.6484,17.92969 v 180.625 q 0,12.61719 4.6484,17.92969 5.3125,5.3125 17.2656,5.3125 h 23.2422 q 11.9532,0 15.9375,-3.32031 3.9844,-3.98438 3.9844,-15.9375 z"
         style="font-style:normal;font-variant:normal;font-weight:normal;font-stretch:normal;font-size:664.0625px;font-family:Teko;-inkscape-font-specification:Teko;fill:#29b6f6;fill-opacity:1;stroke-width:0.99609375"
         id="path1018"
         inkscape:connector-curvature="0" />
      <path
         d="m 5844.041,1093.7562 h -39.8437 v -47.8125 h 27.2265 q 28.5547,0 34.5313,-21.914 l 6.6406,-27.2266 h -32.5391 l -67.7343,-318.75 h 61.0937 l 49.1406,271.60156 45.8204,-271.60156 h 60.4296 l -68.3984,355.2734 q -14.6094,60.4297 -76.3672,60.4297 z"
         style="font-style:normal;font-variant:normal;font-weight:normal;font-stretch:normal;font-size:664.0625px;font-family:Teko;-inkscape-font-specification:Teko;fill:#29b6f6;fill-opacity:1;stroke-width:0.99609375"
         id="path1020"
         inkscape:connector-curvature="0" />
      <path
         d="M 6148.0468,934.38123 V 832.77966 q 0,-11.95312 -3.9844,-15.27343 -3.3203,-3.98438 -15.2735,-3.98438 h -49.1406 q -60.4297,0 -60.4297,-59.10156 V 644.84998 q 0,-58.4375 61.7578,-58.4375 h 65.0782 q 61.7578,0 61.7578,58.4375 v 61.09375 h -60.4297 v -51.79688 q 0,-11.95312 -3.9844,-15.27344 -3.9844,-3.98437 -15.9375,-3.98437 h -27.8906 q -11.9531,0 -15.9375,3.98437 -3.9844,3.32032 -3.9844,15.27344 v 92.30469 q 0,11.95312 3.9844,15.9375 3.9844,3.32031 15.9375,3.32031 h 48.4766 q 61.0937,0 61.0937,58.4375 V 943.6781 q 0,58.4375 -62.4219,58.4375 h -64.414 q -61.7578,0 -61.7578,-58.4375 v -61.09375 h 60.4296 v 51.79688 q 0,11.95312 3.9844,15.9375 3.9844,3.32031 15.9375,3.32031 h 27.8906 q 11.9532,0 15.2735,-3.32031 3.9844,-3.98438 3.9844,-15.9375 z"
         style="font-style:normal;font-variant:normal;font-weight:normal;font-stretch:normal;font-size:664.0625px;font-family:Teko;-inkscape-font-specification:Teko;fill:#0277bd;fill-opacity:1;stroke-width:0.99609375"
         id="path1022"
         inkscape:connector-curvature="0" />
      <path
         d="m 6310.96,1093.7562 h -39.8438 v -47.8125 h 27.2266 q 28.5547,0 34.5312,-21.914 l 6.6406,-27.2266 h -32.539 l -67.7344,-318.75 h 61.0938 l 49.1406,271.60156 45.8203,-271.60156 h 60.4297 l -68.3985,355.2734 q -14.6093,60.4297 -76.3671,60.4297 z"
         style="font-style:normal;font-variant:normal;font-weight:normal;font-stretch:normal;font-size:664.0625px;font-family:Teko;-inkscape-font-specification:Teko;fill:#0277bd;fill-opacity:1;stroke-width:0.99609375"
         id="path1024"
         inkscape:connector-curvature="0" />
      <path
         d="m 6598.3641,937.03748 v -53.78907 q 0,-11.95312 -3.9843,-15.27343 -3.9844,-3.98438 -15.9375,-3.98438 h -33.8672 q -61.7578,0 -61.7578,-58.4375 v -68.39844 q 0,-59.10156 61.7578,-59.10156 h 48.4765 q 62.4219,0 62.4219,59.10156 v 31.21094 h -58.4375 v -25.23437 q 0,-11.95313 -3.9844,-15.27344 -3.9843,-3.98438 -15.9375,-3.98438 h -15.9375 q -11.9531,0 -15.9375,3.98438 -3.9843,3.32031 -3.9843,15.27344 v 55.78125 q 0,11.95312 3.9843,15.9375 3.9844,3.32031 15.9375,3.32031 h 34.5313 q 61.0937,0 61.0937,59.10156 v 66.40625 q 0,58.4375 -61.7578,58.4375 h -49.1406 q -61.7578,0 -61.7578,-58.4375 v -31.875 h 58.4375 v 25.23438 q 0,11.95312 3.9844,15.9375 3.9843,3.32031 15.9375,3.32031 h 15.9375 q 11.9531,0 15.9375,-3.32031 3.9843,-3.98438 3.9843,-15.9375 z"
         style="font-style:normal;font-variant:normal;font-weight:normal;font-stretch:normal;font-size:664.0625px;font-family:Teko;-inkscape-font-specification:Teko;fill:#0277bd;fill-opacity:1;stroke-width:0.99609375"
         id="path1026"
         inkscape:connector-curvature="0" />
      <path
         d="m 6817.5878,726.52966 h -44.4922 v 205.19532 q 0,11.95312 3.3203,15.9375 3.9844,3.32031 15.9375,3.32031 h 25.2344 v 51.13281 h -42.5 q -62.4219,0 -62.4219,-58.4375 V 726.52966 H 6682.119 V 678.0531 h 30.5469 v -55.11719 h 60.4297 v 55.11719 h 44.4922 z"
         style="font-style:normal;font-variant:normal;font-weight:normal;font-stretch:normal;font-size:664.0625px;font-family:Teko;-inkscape-font-specification:Teko;fill:#0277bd;fill-opacity:1;stroke-width:0.99609375"
         id="path1028"
         inkscape:connector-curvature="0" />
      <path
         d="m 6913.7108,678.0531 h 65.0781 q 62.4219,0 62.4219,59.10156 V 858.6781 h -130.8203 v 77.03125 q 0,11.28906 3.9844,15.27344 3.9844,3.98437 15.9375,3.98437 h 30.5469 q 11.9531,0 15.9375,-3.98437 3.9843,-3.98438 3.9843,-15.9375 v -26.5625 h 58.4375 v 35.19531 q 0,58.4375 -61.7578,58.4375 h -63.75 q -61.7578,0 -61.7578,-58.4375 V 737.15466 q 0,-59.10156 61.7578,-59.10156 z m -3.3203,136.79688 h 71.7188 v -70.39063 q 0,-11.28906 -3.9844,-15.27344 -3.3203,-3.98437 -15.2735,-3.98437 h -32.539 q -11.9531,0 -15.9375,3.98437 -3.9844,3.98438 -3.9844,15.27344 z"
         style="font-style:normal;font-variant:normal;font-weight:normal;font-stretch:normal;font-size:664.0625px;font-family:Teko;-inkscape-font-specification:Teko;fill:#0277bd;fill-opacity:1;stroke-width:0.99609375"
         id="path1030"
         inkscape:connector-curvature="0" />
      <path
         d="m 7317.7098,678.0531 h 23.2422 q 59.7657,0 59.7657,59.10156 V 1002.1156 H 7340.952 V 745.78748 q 0,-11.95313 -3.9843,-15.27344 -3.3204,-3.98438 -15.2735,-3.98438 h -23.9062 q -21.25,0 -21.25,23.24219 v 252.34375 h -59.7657 V 745.78748 q 0,-11.95313 -3.9843,-15.27344 -3.9844,-3.98438 -15.9375,-3.98438 h -23.2422 q -11.9531,0 -17.2656,5.3125 -4.6485,5.3125 -4.6485,17.92969 v 252.34375 h -59.7656 V 678.0531 h 59.7656 v 25.89844 q 8.6328,-25.89844 41.1719,-25.89844 h 23.2422 q 42.5,0 55.1172,29.88281 7.9687,-29.88281 46.4843,-29.88281 z"
         style="font-style:normal;font-variant:normal;font-weight:normal;font-stretch:normal;font-size:664.0625px;font-family:Teko;-inkscape-font-specification:Teko;fill:#0277bd;fill-opacity:1;stroke-width:0.99609375"
         id="path1032"
         inkscape:connector-curvature="0" />
      <path
         d="m 7603.8066,586.41248 h 61.7579 l -75.0391,415.70312 h -85 l -75.0391,-415.70312 h 61.7578 l 55.1172,360.58593 z"
         style="font-style:normal;font-variant:normal;font-weight:normal;font-stretch:normal;font-size:664.0625px;font-family:Teko;-inkscape-font-specification:Teko;fill:#0277bd;fill-opacity:1;stroke-width:0.99609375"
         id="path1034"
         inkscape:connector-curvature="0" />
      <path
         d="m 7758.0559,678.0531 h 65.0781 q 62.4219,0 62.4219,59.10156 V 858.6781 h -130.8203 v 77.03125 q 0,11.28906 3.9844,15.27344 3.9843,3.98437 15.9375,3.98437 h 30.5468 q 11.9532,0 15.9375,-3.98437 3.9844,-3.98438 3.9844,-15.9375 v -26.5625 h 58.4375 v 35.19531 q 0,58.4375 -61.7578,58.4375 h -63.75 q -61.7578,0 -61.7578,-58.4375 V 737.15466 q 0,-59.10156 61.7578,-59.10156 z m -3.3203,136.79688 h 71.7187 v -70.39063 q 0,-11.28906 -3.9843,-15.27344 -3.3203,-3.98437 -15.2735,-3.98437 h -32.539 q -11.9532,0 -15.9375,3.98437 -3.9844,3.98438 -3.9844,15.27344 z"
         style="font-style:normal;font-variant:normal;font-weight:normal;font-stretch:normal;font-size:664.0625px;font-family:Teko;-inkscape-font-specification:Teko;fill:#0277bd;fill-opacity:1;stroke-width:0.99609375"
         id="path1036"
         inkscape:connector-curvature="0" />
      <path
         d="m 8048.5002,677.38904 h 13.2813 v 51.79687 h -23.9063 q -41.8359,0 -41.8359,49.14063 v 223.78906 h -59.7656 V 678.0531 h 59.7656 v 39.84375 q 5.3125,-17.26562 18.5938,-28.55469 13.9453,-11.95312 33.8671,-11.95312 z"
         style="font-style:normal;font-variant:normal;font-weight:normal;font-stretch:normal;font-size:664.0625px;font-family:Teko;-inkscape-font-specification:Teko;fill:#0277bd;fill-opacity:1;stroke-width:0.99609375"
         id="path1038"
         inkscape:connector-curvature="0" />
      <path
         d="m 8093.1792,616.29529 v -59.10156 h 62.4219 v 59.10156 z m 61.0937,385.82031 h -59.7656 V 678.0531 h 59.7656 z"
         style="font-style:normal;font-variant:normal;font-weight:normal;font-stretch:normal;font-size:664.0625px;font-family:Teko;-inkscape-font-specification:Teko;fill:#0277bd;fill-opacity:1;stroke-width:0.99609375"
         id="path1040"
         inkscape:connector-curvature="0" />
      <path
         d="m 8272.2998,1002.1156 h -59.7656 V 557.85779 h 59.7656 z"
         style="font-style:normal;font-variant:normal;font-weight:normal;font-stretch:normal;font-size:664.0625px;font-family:Teko;-inkscape-font-specification:Teko;fill:#0277bd;fill-opacity:1;stroke-width:0.99609375"
         id="path1042"
         inkscape:connector-curvature="0" />
      <path
         d="m 8388.3342,678.0531 h 71.0547 q 61.7578,0 61.7578,59.10156 V 943.6781 q 0,58.4375 -61.7578,58.4375 h -71.0547 q -61.0937,0 -61.0937,-58.4375 V 737.15466 q 0,-59.10156 61.0937,-59.10156 z m 73.711,256.99219 V 745.12341 q 0,-11.95312 -3.9844,-15.9375 -3.9844,-3.98437 -15.9375,-3.98437 h -36.5234 q -11.9532,0 -15.9375,3.98437 -3.3204,3.98438 -3.3204,15.9375 v 189.92188 q 0,11.95312 3.3204,15.9375 3.9843,3.98437 15.9375,3.98437 h 36.5234 q 11.9531,0 15.9375,-3.98437 3.9844,-3.98438 3.9844,-15.9375 z"
         style="font-style:normal;font-variant:normal;font-weight:normal;font-stretch:normal;font-size:664.0625px;font-family:Teko;-inkscape-font-specification:Teko;fill:#0277bd;fill-opacity:1;stroke-width:0.99609375"
         id="path1044"
         inkscape:connector-curvature="0" />
      <path
         d="m 8696.5527,678.0531 h 59.7657 v 357.2656 q 0,58.4375 -62.4219,58.4375 H 8582.998 v -47.1484 h 93.6329 q 11.9531,0 15.9375,-3.9844 3.9843,-3.9844 3.9843,-15.2734 v -55.11721 q -8.6328,25.89844 -41.1718,25.89844 h -23.9063 q -59.7656,0 -59.7656,-59.10157 v -201.875 q 0,-59.10156 59.7656,-59.10156 h 23.9063 q 32.539,0 41.1718,25.89844 z m -45.1562,271.60156 h 23.2422 q 11.9531,0 16.6015,-5.3125 5.3125,-5.3125 5.3125,-17.92968 V 749.77185 q 0,-12.61719 -5.3125,-17.92969 -4.6484,-5.3125 -16.6015,-5.3125 h -23.2422 q -11.9531,0 -15.9375,3.98438 -3.9844,3.32031 -3.9844,15.27344 v 184.60937 q 0,11.28906 3.9844,15.27344 3.9844,3.98437 15.9375,3.98437 z"
         style="font-style:normal;font-variant:normal;font-weight:normal;font-stretch:normal;font-size:664.0625px;font-family:Teko;-inkscape-font-specification:Teko;fill:#0277bd;fill-opacity:1;stroke-width:0.99609375"
         id="path1046"
         inkscape:connector-curvature="0" />
      <path
         d="m 8872.1143,1002.1156 h -52.461 V 586.41248 h 65.7422 l 71.0547,257.65625 71.0547,-257.65625 h 65.7422 v 415.70312 h -52.461 V 697.97498 l -57.1093,213.82812 h -54.4532 l -57.1093,-213.16406 z"
         style="font-style:normal;font-variant:normal;font-weight:normal;font-stretch:normal;font-size:664.0625px;font-family:Teko;-inkscape-font-specification:Teko;fill:#0277bd;fill-opacity:1;stroke-width:0.99609375"
         id="path1048"
         inkscape:connector-curvature="0" />
      <path
         d="m 9214.5215,678.0531 h 71.0547 q 61.7578,0 61.7578,59.10156 V 943.6781 q 0,58.4375 -61.7578,58.4375 h -71.0547 q -61.0938,0 -61.0938,-58.4375 V 737.15466 q 0,-59.10156 61.0938,-59.10156 z m 73.7109,256.99219 V 745.12341 q 0,-11.95312 -3.9844,-15.9375 -3.9843,-3.98437 -15.9375,-3.98437 h -36.5234 q -11.9531,0 -15.9375,3.98437 -3.3203,3.98438 -3.3203,15.9375 v 189.92188 q 0,11.95312 3.3203,15.9375 3.9844,3.98437 15.9375,3.98437 h 36.5234 q 11.9532,0 15.9375,-3.98437 3.9844,-3.98438 3.9844,-15.9375 z"
         style="font-style:normal;font-variant:normal;font-weight:normal;font-stretch:normal;font-size:664.0625px;font-family:Teko;-inkscape-font-specification:Teko;fill:#0277bd;fill-opacity:1;stroke-width:0.99609375"
         id="path1050"
         inkscape:connector-curvature="0" />
      <path
         d="m 9522.7397,557.85779 h 59.7657 v 444.25781 h -59.7657 v -25.89844 q -8.6328,25.89844 -41.1718,25.89844 h -23.9063 q -59.7656,0 -59.7656,-58.4375 V 736.4906 q 0,-59.10156 59.7656,-59.10156 h 23.9063 q 32.539,0 41.1718,25.89844 z m -45.1562,395.78125 h 23.2422 q 11.9531,0 16.6015,-5.3125 5.3125,-5.3125 5.3125,-17.92969 V 749.10779 q 0,-12.61719 -5.3125,-17.92969 -4.6484,-5.3125 -16.6015,-5.3125 h -23.2422 q -11.9531,0 -15.9375,3.98438 -3.9844,3.98437 -3.9844,15.27343 v 189.25782 q 0,11.95312 3.9844,15.9375 3.9844,3.32031 15.9375,3.32031 z"
         style="font-style:normal;font-variant:normal;font-weight:normal;font-stretch:normal;font-size:664.0625px;font-family:Teko;-inkscape-font-specification:Teko;fill:#0277bd;fill-opacity:1;stroke-width:0.99609375"
         id="path1052"
         inkscape:connector-curvature="0" />
      <path
         d="m 9700.9575,678.0531 h 65.0781 q 62.4219,0 62.4219,59.10156 V 858.6781 h -130.8203 v 77.03125 q 0,11.28906 3.9844,15.27344 3.9844,3.98437 15.9375,3.98437 h 30.5469 q 11.9531,0 15.9375,-3.98437 3.9843,-3.98438 3.9843,-15.9375 v -26.5625 h 58.4375 v 35.19531 q 0,58.4375 -61.7578,58.4375 h -63.75 q -61.7578,0 -61.7578,-58.4375 V 737.15466 q 0,-59.10156 61.7578,-59.10156 z m -3.3203,136.79688 h 71.7188 v -70.39063 q 0,-11.28906 -3.9844,-15.27344 -3.3203,-3.98437 -15.2735,-3.98437 h -32.539 q -11.9531,0 -15.9375,3.98437 -3.9844,3.98438 -3.9844,15.27344 z"
         style="font-style:normal;font-variant:normal;font-weight:normal;font-stretch:normal;font-size:664.0625px;font-family:Teko;-inkscape-font-specification:Teko;fill:#0277bd;fill-opacity:1;stroke-width:0.99609375"
         id="path1054"
         inkscape:connector-curvature="0" />
      <path
         d="m 9938.9409,1002.1156 h -59.7656 V 557.85779 h 59.7656 z"
         style="font-style:normal;font-variant:normal;font-weight:normal;font-stretch:normal;font-size:664.0625px;font-family:Teko;-inkscape-font-specification:Teko;fill:#0277bd;fill-opacity:1;stroke-width:0.99609375"
         id="path1056"
         inkscape:connector-curvature="0" />
    </g>
  </g>
</svg>
