<?xml version="1.0" encoding="UTF-8" standalone="no"?>
<!-- Created with Inkscape (http://www.inkscape.org/) -->

<svg
   xmlns:dc="http://purl.org/dc/elements/1.1/"
   xmlns:cc="http://creativecommons.org/ns#"
   xmlns:rdf="http://www.w3.org/1999/02/22-rdf-syntax-ns#"
   xmlns:svg="http://www.w3.org/2000/svg"
   xmlns="http://www.w3.org/2000/svg"
   xmlns:sodipodi="http://sodipodi.sourceforge.net/DTD/sodipodi-0.dtd"
   xmlns:inkscape="http://www.inkscape.org/namespaces/inkscape"
   width="714.31433mm"
   height="142.34583mm"
   viewBox="0 0 714.31433 142.34583"
   version="1.1"
   id="svg1679"
   inkscape:version="0.92.4 (5da689c313, 2019-01-14)"
   sodipodi:docname="banner.svg">
  <defs
     id="defs1673" />
  <sodipodi:namedview
     id="base"
     pagecolor="#ffffff"
     bordercolor="#666666"
     borderopacity="1.0"
     inkscape:pageopacity="0.0"
     inkscape:pageshadow="2"
     inkscape:zoom="0.24748737"
     inkscape:cx="2165.5569"
     inkscape:cy="269.33332"
     inkscape:document-units="mm"
     inkscape:current-layer="layer1"
     showgrid="false"
     fit-margin-top="0"
     fit-margin-left="0"
     fit-margin-right="0"
     fit-margin-bottom="0"
     inkscape:window-width="1920"
     inkscape:window-height="1017"
     inkscape:window-x="-8"
     inkscape:window-y="1072"
     inkscape:window-maximized="1" />
  <metadata
     id="metadata1676">
    <rdf:RDF>
      <cc:Work
         rdf:about="">
        <dc:format>image/svg+xml</dc:format>
        <dc:type
           rdf:resource="http://purl.org/dc/dcmitype/StillImage" />
        <dc:title></dc:title>
      </cc:Work>
    </rdf:RDF>
  </metadata>
  <g
     inkscape:label="Layer 1"
     inkscape:groupmode="layer"
     id="layer1"
     transform="translate(559.31818,-77.748613)">
    <g
       transform="matrix(0.26562092,0,0,0.26562092,-1869.0057,-70.430086)"
       id="g1108"
       inkscape:export-filename="C:\Users\eine\Desktop\EDAA_modules_logos.png"
       inkscape:export-xdpi="17.843866"
       inkscape:export-ydpi="17.843866">
      <rect
         style="fill:#0277bd;fill-opacity:1;stroke-width:1.66958511"
         x="5097.6221"
         y="995.20099"
         width="166.95851"
         height="83.479256"
         id="rect990" />
      <rect
         style="fill:#29b6f6;fill-opacity:1;stroke-width:1.66958511"
         x="5264.5811"
         y="995.20099"
         width="166.95851"
         height="83.479256"
         id="rect992" />
      <rect
         style="fill:#0277bd;fill-opacity:1;stroke-width:1.66958511"
         x="5097.6221"
         y="911.72174"
         width="166.95851"
         height="83.479256"
         id="rect994" />
      <rect
         style="fill:#29b6f6;fill-opacity:1;stroke-width:1.66958511"
         x="4930.6641"
         y="911.72174"
         width="166.95851"
         height="83.479256"
         id="rect996" />
      <rect
         style="fill:#0277bd;fill-opacity:1;stroke-width:1.66958511"
         x="5097.6221"
         y="828.24255"
         width="166.95851"
         height="83.479256"
         id="rect998" />
      <rect
         style="fill:#29b6f6;fill-opacity:1;stroke-width:1.66958511"
         x="5264.5811"
         y="828.24255"
         width="166.95851"
         height="83.479256"
         id="rect1000" />
      <rect
         style="fill:#0277bd;stroke-width:1.66958511"
         x="5097.6221"
         y="744.76318"
         width="166.95851"
         height="83.479256"
         id="rect1002" />
      <rect
         style="fill:#29b6f6;stroke-width:1.66958511"
         x="4930.6641"
         y="744.76318"
         width="166.95851"
         height="83.479256"
         id="rect1004" />
      <rect
         style="fill:#0277bd;fill-opacity:1;stroke-width:1.66958511"
         x="5097.6221"
         y="661.28394"
         width="166.95851"
         height="83.479256"
         id="rect1006" />
      <rect
         style="fill:#29b6f6;fill-opacity:1;stroke-width:1.66958511"
         x="5264.5811"
         y="661.28394"
         width="166.95851"
         height="83.479256"
         id="rect1008" />
      <rect
         style="fill:#0277bd;fill-opacity:1;stroke-width:1.66958511"
         x="5097.6221"
         y="577.80475"
         width="166.95851"
         height="83.479256"
         id="rect1010" />
      <rect
         style="fill:#29b6f6;fill-opacity:1;stroke-width:1.66958511"
         x="4930.6641"
         y="577.80475"
         width="166.95851"
         height="83.479256"
         id="rect1012" />
    </g>
    <g
       id="g898">
      <g
         inkscape:export-ydpi="17.843866"
         inkscape:export-xdpi="17.843866"
         inkscape:export-filename="C:\Users\eine\Desktop\EDAA_modules_logos.png"
         id="text1016"
         style="font-style:normal;font-weight:normal;font-size:39.84375px;line-height:1.25;font-family:sans-serif;letter-spacing:0px;word-spacing:0px;fill:#ffffff;fill-opacity:1;stroke:none;stroke-width:0.99609375"
         aria-label="pySystemVerilogModel"
         transform="matrix(0.26562092,0,0,0.26562092,-1869.0057,-70.430086)">
        <path
           inkscape:connector-curvature="0"
           id="path1018"
           style="font-style:normal;font-variant:normal;font-weight:normal;font-stretch:normal;font-size:664.0625px;font-family:Teko;-inkscape-font-specification:Teko;fill:#29b6f6;fill-opacity:1;stroke-width:0.99609375"
           d="m 5658.5186,678.0531 h 23.2421 q 60.4297,0 60.4297,59.10156 V 943.6781 q 0,58.4375 -60.4297,58.4375 h -23.2421 q -32.5391,0 -41.1719,-25.89844 v 117.53904 h -59.7656 V 678.0531 h 59.7656 v 25.89844 q 8.6328,-25.89844 41.1719,-25.89844 z m 23.9062,256.32813 V 745.78748 q 0,-11.95313 -3.9844,-15.27344 -3.9843,-3.98438 -15.9375,-3.98438 h -23.2422 q -11.9531,0 -17.2656,5.3125 -4.6484,5.3125 -4.6484,17.92969 v 180.625 q 0,12.61719 4.6484,17.92969 5.3125,5.3125 17.2656,5.3125 h 23.2422 q 11.9532,0 15.9375,-3.32031 3.9844,-3.98438 3.9844,-15.9375 z" />
        <path
           inkscape:connector-curvature="0"
           id="path1020"
           style="font-style:normal;font-variant:normal;font-weight:normal;font-stretch:normal;font-size:664.0625px;font-family:Teko;-inkscape-font-specification:Teko;fill:#29b6f6;fill-opacity:1;stroke-width:0.99609375"
           d="m 5844.041,1093.7562 h -39.8437 v -47.8125 h 27.2265 q 28.5547,0 34.5313,-21.914 l 6.6406,-27.2266 h -32.5391 l -67.7343,-318.75 h 61.0937 l 49.1406,271.60156 45.8204,-271.60156 h 60.4296 l -68.3984,355.2734 q -14.6094,60.4297 -76.3672,60.4297 z" />
        <path
           inkscape:connector-curvature="0"
           id="path1022"
           style="font-style:normal;font-variant:normal;font-weight:normal;font-stretch:normal;font-size:664.0625px;font-family:Teko;-inkscape-font-specification:Teko;fill:#0277bd;fill-opacity:1;stroke-width:0.99609375"
           d="M 6148.0468,934.38123 V 832.77966 q 0,-11.95312 -3.9844,-15.27343 -3.3203,-3.98438 -15.2735,-3.98438 h -49.1406 q -60.4297,0 -60.4297,-59.10156 V 644.84998 q 0,-58.4375 61.7578,-58.4375 h 65.0782 q 61.7578,0 61.7578,58.4375 v 61.09375 h -60.4297 v -51.79688 q 0,-11.95312 -3.9844,-15.27344 -3.9844,-3.98437 -15.9375,-3.98437 h -27.8906 q -11.9531,0 -15.9375,3.98437 -3.9844,3.32032 -3.9844,15.27344 v 92.30469 q 0,11.95312 3.9844,15.9375 3.9844,3.32031 15.9375,3.32031 h 48.4766 q 61.0937,0 61.0937,58.4375 V 943.6781 q 0,58.4375 -62.4219,58.4375 h -64.414 q -61.7578,0 -61.7578,-58.4375 v -61.09375 h 60.4296 v 51.79688 q 0,11.95312 3.9844,15.9375 3.9844,3.32031 15.9375,3.32031 h 27.8906 q 11.9532,0 15.2735,-3.32031 3.9844,-3.98438 3.9844,-15.9375 z" />
      </g>
      <g
         transform="matrix(0.26562092,0,0,0.26562092,-2186.5257,-70.430086)"
         aria-label="pySystemVerilogModel"
         style="font-style:normal;font-weight:normal;font-size:39.84375px;line-height:1.25;font-family:sans-serif;letter-spacing:0px;word-spacing:0px;fill:#ffffff;fill-opacity:1;stroke:none;stroke-width:0.99609375"
         id="g868"
         inkscape:export-filename="C:\Users\eine\Desktop\EDAA_modules_logos.png"
         inkscape:export-xdpi="17.843866"
         inkscape:export-ydpi="17.843866">
        <path
           d="m 7603.8066,586.41248 h 61.7579 l -75.0391,415.70312 h -85 l -75.0391,-415.70312 h 61.7578 l 55.1172,360.58593 z"
           style="font-style:normal;font-variant:normal;font-weight:normal;font-stretch:normal;font-size:664.0625px;font-family:Teko;-inkscape-font-specification:Teko;fill:#0277bd;fill-opacity:1;stroke-width:0.99609375"
           id="path854"
           inkscape:connector-curvature="0" />
      </g>
      <g
         inkscape:export-ydpi="17.843866"
         inkscape:export-xdpi="17.843866"
         inkscape:export-filename="C:\Users\eine\Desktop\EDAA_modules_logos.png"
         id="g884"
         style="font-style:normal;font-weight:normal;font-size:39.84375px;line-height:1.25;font-family:sans-serif;letter-spacing:0px;word-spacing:0px;fill:#ffffff;fill-opacity:1;stroke:none;stroke-width:0.99609375"
         aria-label="pySystemVerilogModel"
         transform="matrix(0.26562092,0,0,0.26562092,-2484.9945,-70.430086)">
        <path
           inkscape:connector-curvature="0"
           id="path874"
           style="font-style:normal;font-variant:normal;font-weight:normal;font-stretch:normal;font-size:664.0625px;font-family:Teko;-inkscape-font-specification:Teko;fill:#0277bd;fill-opacity:1;stroke-width:0.99609375"
           d="m 8872.1143,1002.1156 h -52.461 V 586.41248 h 65.7422 l 71.0547,257.65625 71.0547,-257.65625 h 65.7422 v 415.70312 h -52.461 V 697.97498 l -57.1093,213.82812 h -54.4532 l -57.1093,-213.16406 z" />
        <path
           inkscape:connector-curvature="0"
           id="path876"
           style="font-style:normal;font-variant:normal;font-weight:normal;font-stretch:normal;font-size:664.0625px;font-family:Teko;-inkscape-font-specification:Teko;fill:#0277bd;fill-opacity:1;stroke-width:0.99609375"
           d="m 9214.5215,678.0531 h 71.0547 q 61.7578,0 61.7578,59.10156 V 943.6781 q 0,58.4375 -61.7578,58.4375 h -71.0547 q -61.0938,0 -61.0938,-58.4375 V 737.15466 q 0,-59.10156 61.0938,-59.10156 z m 73.7109,256.99219 V 745.12341 q 0,-11.95312 -3.9844,-15.9375 -3.9843,-3.98437 -15.9375,-3.98437 h -36.5234 q -11.9531,0 -15.9375,3.98437 -3.3203,3.98438 -3.3203,15.9375 v 189.92188 q 0,11.95312 3.3203,15.9375 3.9844,3.98437 15.9375,3.98437 h 36.5234 q 11.9532,0 15.9375,-3.98437 3.9844,-3.98438 3.9844,-15.9375 z" />
        <path
           inkscape:connector-curvature="0"
           id="path878"
           style="font-style:normal;font-variant:normal;font-weight:normal;font-stretch:normal;font-size:664.0625px;font-family:Teko;-inkscape-font-specification:Teko;fill:#0277bd;fill-opacity:1;stroke-width:0.99609375"
           d="m 9522.7397,557.85779 h 59.7657 v 444.25781 h -59.7657 v -25.89844 q -8.6328,25.89844 -41.1718,25.89844 h -23.9063 q -59.7656,0 -59.7656,-58.4375 V 736.4906 q 0,-59.10156 59.7656,-59.10156 h 23.9063 q 32.539,0 41.1718,25.89844 z m -45.1562,395.78125 h 23.2422 q 11.9531,0 16.6015,-5.3125 5.3125,-5.3125 5.3125,-17.92969 V 749.10779 q 0,-12.61719 -5.3125,-17.92969 -4.6484,-5.3125 -16.6015,-5.3125 h -23.2422 q -11.9531,0 -15.9375,3.98438 -3.9844,3.98437 -3.9844,15.27343 v 189.25782 q 0,11.95312 3.9844,15.9375 3.9844,3.32031 15.9375,3.32031 z" />
        <path
           inkscape:connector-curvature="0"
           id="path880"
           style="font-style:normal;font-variant:normal;font-weight:normal;font-stretch:normal;font-size:664.0625px;font-family:Teko;-inkscape-font-specification:Teko;fill:#0277bd;fill-opacity:1;stroke-width:0.99609375"
           d="m 9700.9575,678.0531 h 65.0781 q 62.4219,0 62.4219,59.10156 V 858.6781 h -130.8203 v 77.03125 q 0,11.28906 3.9844,15.27344 3.9844,3.98437 15.9375,3.98437 h 30.5469 q 11.9531,0 15.9375,-3.98437 3.9843,-3.98438 3.9843,-15.9375 v -26.5625 h 58.4375 v 35.19531 q 0,58.4375 -61.7578,58.4375 h -63.75 q -61.7578,0 -61.7578,-58.4375 V 737.15466 q 0,-59.10156 61.7578,-59.10156 z m -3.3203,136.79688 h 71.7188 v -70.39063 q 0,-11.28906 -3.9844,-15.27344 -3.3203,-3.98437 -15.2735,-3.98437 h -32.539 q -11.9531,0 -15.9375,3.98437 -3.9844,3.98438 -3.9844,15.27344 z" />
        <path
           inkscape:connector-curvature="0"
           id="path882"
           style="font-style:normal;font-variant:normal;font-weight:normal;font-stretch:normal;font-size:664.0625px;font-family:Teko;-inkscape-font-specification:Teko;fill:#0277bd;fill-opacity:1;stroke-width:0.99609375"
           d="m 9938.9409,1002.1156 h -59.7656 V 557.85779 h 59.7656 z" />
      </g>
    </g>
  </g>
</svg>
