<svg xmlns="http://www.w3.org/2000/svg" width="1464.531" height="304">
  <path fill="none" d="M2 2h100v50H2Zm200 50h100v50H202Z" style="fill:#fff;fill-opacity:0;stroke:#29b6f6;stroke-width:4px"/>
  <path d="M2 102h100v50H2Z" style="fill:#29b6f6;fill-opacity:1;stroke:#29b6f6;stroke-width:4px"/>
  <path fill="none" d="M202 152h100v50H202ZM2 202h100v50H2Zm200 50h100v50H202Z" style="fill:#fff;fill-opacity:0;stroke:#29b6f6;stroke-width:4px"/>
  <path fill="none" d="M102 2h100v50H102Zm0 50h100v50H102Z" style="fill:#fff;fill-opacity:0;stroke:#0277bd;stroke-width:4px"/>
  <path d="M102 102h100v50H102Z" style="fill:#0277bd;fill-opacity:1;stroke:#0277bd;stroke-width:4px"/>
  <path fill="none" d="M102 152h100v50H102Zm0 50h100v50H102Zm0 50h100v50H102Z" style="fill:#fff;fill-opacity:0;stroke:#0277bd;stroke-width:4px"/>
  <path d="M429.947 67.827h12.133q31.547 0 31.547 30.853v107.813q0 30.507-31.547 30.507h-12.133q-16.987 0-21.494-13.52v61.36h-31.2V67.827h31.2v13.52q4.507-13.52 21.494-13.52Zm12.48 133.813v-98.453q0-6.24-2.08-7.974-2.08-2.08-8.32-2.08h-12.134q-6.24 0-9.013 2.774-2.427 2.773-2.427 9.36v94.293q0 6.587 2.427 9.36 2.773 2.773 9.013 2.773h12.134q6.24 0 8.32-1.733 2.08-2.08 2.08-8.32zm84.586 83.2h-20.8v-24.96h14.213q14.907 0 18.027-11.44l3.467-14.213h-16.987l-35.36-166.4h31.893l25.654 141.786 23.92-141.786h31.546L566.88 253.293q-7.627 31.547-39.867 31.547Z" aria-label="py" class="pySVModel_svg__TekoFont" style="fill:#0277bd"/>
  <path d="M690.427 201.64V148.6q0-6.24-2.08-7.973-1.734-2.08-7.974-2.08H654.72q-31.547 0-31.547-30.854v-57.2q0-30.506 32.24-30.506h33.974q32.24 0 32.24 30.506v31.894H690.08v-27.04q0-6.24-2.08-7.974-2.08-2.08-8.32-2.08h-14.56q-6.24 0-8.32 2.08-2.08 1.734-2.08 7.974v48.186q0 6.24 2.08 8.32 2.08 1.734 8.32 1.734h25.307q31.893 0 31.893 30.506v62.4q0 30.507-32.587 30.507h-33.626q-32.24 0-32.24-30.507V174.6h31.546v27.04q0 6.24 2.08 8.32 2.08 1.733 8.32 1.733h14.56q6.24 0 7.974-1.733 2.08-2.08 2.08-8.32zM827.36 19.987h32.24L820.425 237h-44.373L736.879 19.987h32.24l28.774 188.24zM906.745 237H879.36V19.987h34.32l37.093 134.506 37.093-134.506h34.32V237H994.8V78.227l-29.814 111.626H936.56l-29.814-111.28Zm178.88-169.173h37.093q32.24 0 32.24 30.853v107.813q0 30.507-32.24 30.507h-37.093q-31.893 0-31.893-30.507V98.68q0-30.853 31.893-30.853zm38.48 134.16V102.84q0-6.24-2.08-8.32t-8.32-2.08h-19.067q-6.24 0-8.32 2.08-1.733 2.08-1.733 8.32v99.147q0 6.24 1.733 8.32 2.08 2.08 8.32 2.08h19.067q6.24 0 8.32-2.08t2.08-8.32zM1246.825 5.08h31.2V237h-31.2v-13.52Q1242.318 237 1225.33 237h-12.48q-31.2 0-31.2-30.507V98.333q0-30.853 31.2-30.853h12.48q16.987 0 21.494 13.52zm-23.574 206.613h12.134q6.24 0 8.666-2.773 2.774-2.773 2.774-9.36v-94.64q0-6.587-2.774-9.36-2.426-2.773-8.666-2.773h-12.134q-6.24 0-8.32 2.08t-2.08 7.973v98.8q0 6.24 2.08 8.32 2.08 1.733 8.32 1.733zm116.827-143.866h33.973q32.587 0 32.587 30.853v63.44h-68.294v40.213q0 5.894 2.08 7.974t8.32 2.08h15.947q6.24 0 8.32-2.08t2.08-8.32V188.12h30.507v18.373q0 30.507-32.24 30.507h-33.28q-32.24 0-32.24-30.507V98.68q0-30.853 32.24-30.853zm-1.734 71.413h37.44v-36.747q0-5.893-2.08-7.973-1.733-2.08-7.973-2.08h-16.987q-6.24 0-8.32 2.08t-2.08 7.973zM1464.53 237h-31.2V5.08h31.2z" aria-label="SVModel" class="pySVModel_svg__TekoFont" style="fill:#29b6f6"/>
</svg>
